<svg width="129" height="40" viewBox="0 0 129 40" fill="none" xmlns="http://www.w3.org/2000/svg">
<path d="M50.9853 20.6271C50.117 19.0133 46.7482 21.5976 45.1723 23.0915C42.3577 24.6247 37.895 27.5173 42.5601 26.822C48.3915 25.9529 52.1074 25.8349 52.6225 24.4507C53.1376 23.0665 52.0706 22.6444 50.9853 20.6271Z" fill="#D67D3E"/>
<path fill-rule="evenodd" clip-rule="evenodd" d="M22.0927 38.7788C23.5816 39.5929 25.251 40 27.1009 40C28.9508 40 30.6202 39.5929 32.1091 38.7788C33.6206 37.9647 34.8049 36.8017 35.6622 35.2898C36.542 33.7547 36.9819 31.9869 36.9819 29.9866C36.9819 27.9862 36.5533 26.2301 35.696 24.7182C34.8388 23.183 33.6657 22.0084 32.1768 21.1943C30.6878 20.3802 29.0185 19.9731 27.1686 19.9731C25.3187 19.9731 23.6493 20.3802 22.1604 21.1943C20.6715 22.0084 19.4984 23.183 18.6411 24.7182C17.7839 26.2301 17.3552 27.9862 17.3552 29.9866C17.3552 32.0102 17.7726 33.7779 18.6073 35.2898C19.4645 36.8017 20.6264 37.9647 22.0927 38.7788ZM29.9096 33.5802C29.1425 34.4176 28.2063 34.8363 27.1009 34.8363C25.9955 34.8363 25.0706 34.4176 24.3261 33.5802C23.6042 32.7429 23.2432 31.545 23.2432 29.9866C23.2432 28.4049 23.6155 27.207 24.3599 26.3929C25.1044 25.5555 26.0406 25.1368 27.1686 25.1368C28.274 25.1368 29.1989 25.5555 29.9434 26.3929C30.7104 27.2302 31.0939 28.4281 31.0939 29.9866C31.0939 31.545 30.6991 32.7429 29.9096 33.5802Z" fill="#470D21"/>
<path fill-rule="evenodd" clip-rule="evenodd" d="M43.6387 38.7788C45.1276 39.5929 46.797 40 48.6469 40C50.4968 40 52.1662 39.5929 53.6551 38.7788C55.1666 37.9647 56.3509 36.8017 57.2082 35.2898C58.088 33.7547 58.5279 31.9869 58.5279 29.9866C58.5279 27.9862 58.0993 26.2301 57.242 24.7182C56.3848 23.183 55.2117 22.0084 53.7228 21.1943C52.2339 20.3802 50.5645 19.9731 48.7146 19.9731C46.8647 19.9731 45.1953 20.3802 43.7064 21.1943C42.2175 22.0084 41.0444 23.183 40.1871 24.7182C39.3299 26.2301 38.9012 27.9862 38.9012 29.9866C38.9012 32.0102 39.3186 33.7779 40.1533 35.2898C41.0105 36.8017 42.1724 37.9647 43.6387 38.7788ZM51.4556 33.5802C50.6885 34.4176 49.7523 34.8363 48.6469 34.8363C47.5415 34.8363 46.6166 34.4176 45.8721 33.5802C45.1502 32.7429 44.7892 31.545 44.7892 29.9866C44.7892 28.4049 45.1615 27.207 45.9059 26.3929C46.6504 25.5555 47.5866 25.1368 48.7146 25.1368C49.82 25.1368 50.7449 25.5555 51.4894 26.3929C52.2564 27.2302 52.6399 28.4281 52.6399 29.9866C52.6399 31.545 52.2451 32.7429 51.4556 33.5802Z" fill="#470D21"/>
<path fill-rule="evenodd" clip-rule="evenodd" d="M61.5301 24.6833C60.8082 26.1952 60.4472 27.9513 60.4472 29.9517C60.4472 31.952 60.8082 33.7198 61.5301 35.2549C62.2746 36.7669 63.2784 37.9415 64.5418 38.7788C65.8051 39.5929 67.2151 40 68.7717 40C70.1027 40 71.2645 39.7209 72.2571 39.1626C73.2723 38.6044 74.0506 37.8601 74.592 36.9297V39.7209H80.3785V13.9022H74.592V22.9388C74.0054 22.0316 73.1933 21.3106 72.1556 20.7756C71.1404 20.2406 70.0124 19.9731 68.7717 19.9731C67.2151 19.9731 65.8051 20.3802 64.5418 21.1943C63.2784 22.0084 62.2746 23.1714 61.5301 24.6833ZM73.3738 26.4627C74.1859 27.3233 74.592 28.4979 74.592 29.9866C74.592 31.4752 74.1859 32.6498 73.3738 33.5105C72.5842 34.3711 71.6142 34.8014 70.4636 34.8014C69.3131 34.8014 68.3318 34.3711 67.5196 33.5105C66.73 32.6266 66.3352 31.4403 66.3352 29.9517C66.3352 28.463 66.73 27.3 67.5196 26.4627C68.3318 25.602 69.3131 25.1717 70.4636 25.1717C71.6142 25.1717 72.5842 25.602 73.3738 26.4627Z" fill="#470D21"/>
<path d="M84.9708 17.3215C85.625 17.9262 86.4597 18.2286 87.4749 18.2286C88.4675 18.2286 89.2797 17.9262 89.9113 17.3215C90.5656 16.6934 90.8927 15.9259 90.8927 15.0187C90.8927 14.0883 90.5656 13.3207 89.9113 12.716C89.2797 12.088 88.4675 11.7739 87.4749 11.7739C86.4597 11.7739 85.625 12.088 84.9708 12.716C84.3392 13.3207 84.0233 14.0883 84.0233 15.0187C84.0233 15.9259 84.3392 16.6934 84.9708 17.3215Z" fill="#470D21"/>
<path fill-rule="evenodd" clip-rule="evenodd" d="M112.243 31.417C112.31 30.8123 112.344 30.2308 112.344 29.6725C112.344 27.7187 111.938 26.0091 111.126 24.5437C110.336 23.0783 109.231 21.9502 107.81 21.1594C106.388 20.3685 104.764 19.9731 102.937 19.9731C101.064 19.9731 99.4062 20.3802 97.9624 21.1943C96.5186 22.0084 95.3906 23.1714 94.5785 24.6833C93.7889 26.1952 93.3941 27.9629 93.3941 29.9866C93.3941 32.0102 93.8002 33.7779 94.6123 35.2898C95.4245 36.8017 96.5524 37.9647 97.9962 38.7788C99.44 39.5929 101.087 40 102.937 40C104.471 40 105.858 39.7092 107.099 39.1277C108.34 38.5462 109.366 37.7438 110.178 36.7203C111.013 35.6969 111.588 34.5455 111.904 33.2662H105.745C105.181 34.5223 104.178 35.1503 102.734 35.1503C101.764 35.1503 100.94 34.8363 100.263 34.2083C99.6092 33.557 99.237 32.6266 99.1468 31.417H112.243ZM105.407 25.6602C106.084 26.2649 106.422 27.079 106.422 28.1025H99.1806C99.3385 27.0325 99.7446 26.2068 100.399 25.6253C101.076 25.0438 101.899 24.753 102.869 24.753C103.884 24.753 104.73 25.0554 105.407 25.6602Z" fill="#470D21"/>
<path d="M122.198 25.1717L114.348 34.9758V39.7209H129V34.8014H120.811L128.831 24.9973V20.2522H114.415V25.1717H122.198Z" fill="#470D21"/>
<path d="M15.4645 20.008V15.2281H0V39.7209H5.78649V29.8121H13.0281V25.1717H5.78649V20.008H15.4645Z" fill="#470D21"/>
<path d="M90.3512 39.7209V20.2522H84.5648V39.7209H90.3512Z" fill="#470D21"/>
<path d="M38.1917 21.1855L41.0116 20.0952L46.0874 18.4598L50.5993 17.9146L55.1112 17.9146L55.8793 22.5171L51.888 22.3501L48.4917 22.8473L43.4094 23.9131L39.1872 25.73L38.1917 21.1855Z" fill="#D67D3E"/>
<path d="M46.5969 6.37279C46.6548 6.38205 46.695 6.43771 46.6867 6.49712C46.5227 7.67245 46.3196 9.65392 46.2438 11.7744C46.168 13.8964 46.2202 16.1497 46.5636 17.8724C46.5754 17.9315 46.5384 17.9885 46.4811 17.9999C46.4239 18.0113 46.3679 17.9726 46.3561 17.9136C46.0075 16.1648 45.9562 13.8906 46.0322 11.7637C46.1082 9.63511 46.3121 7.64601 46.4771 6.4636C46.4853 6.40419 46.539 6.36353 46.5969 6.37279Z" fill="#470D21"/>
<path d="M34.7825 8.03179C34.8405 8.02428 34.8939 8.06656 34.9019 8.12621C35.1268 9.79831 36.2585 13.8102 38.9737 16.4597C39.0163 16.5013 39.0185 16.5702 38.9785 16.6136C38.9385 16.657 38.8715 16.6584 38.8288 16.6167C36.0651 13.9198 34.9206 9.85259 34.6921 8.1534C34.6841 8.09375 34.7246 8.0393 34.7825 8.03179Z" fill="#470D21"/>
<path d="M44.1758 8.2602C44.2339 8.25436 44.2862 8.29813 44.2927 8.35797C44.4103 9.457 44.6352 11.2099 44.9274 12.8952C45.2204 14.5856 45.5785 16.1916 45.9588 17.0077C45.9841 17.0622 45.962 17.127 45.9093 17.1524C45.8566 17.1778 45.7933 17.1543 45.7679 17.0998C45.3731 16.2522 45.0111 14.6165 44.7188 12.9308C44.4257 11.2398 44.2002 9.48197 44.0821 8.37914C44.0757 8.3193 44.1176 8.26605 44.1758 8.2602Z" fill="#470D21"/>
<path d="M55.1603 11.0602C55.2074 11.0965 55.2173 11.1648 55.1826 11.2127C54.7245 11.8441 54.0195 12.8956 53.395 13.9953C52.768 15.0991 52.2309 16.2368 52.0961 17.0453C52.0863 17.1044 52.0315 17.1435 51.9739 17.1327C51.9162 17.1218 51.8775 17.0651 51.8873 17.0059C52.0292 16.1549 52.5849 14.9873 53.2117 13.8838C53.8408 12.7761 54.5503 11.7179 55.0122 11.0812C55.047 11.0333 55.1133 11.0239 55.1603 11.0602Z" fill="#470D21"/>
<path fill-rule="evenodd" clip-rule="evenodd" d="M59.338 4.84411C58.405 3.15273 56.6471 1.68037 53.4681 1.40878C52.0036 0.210743 48.4583 -1.11983 44.3591 1.56974C42.5741 0.907669 38.944 0.772434 35.7512 4.1806C34.9932 4.19159 34.1218 4.4229 33.2688 4.82698C32.3139 5.27938 31.3467 5.96475 30.5448 6.86275C28.9266 8.67494 27.9873 11.3561 29.1876 14.6482C29.6264 15.8517 31.3375 18.4038 34.7958 19.6985C36.8527 20.5112 37.4854 22.0991 37.5576 22.6834C37.5614 22.7141 37.5677 22.7443 37.5765 22.7739C38.096 24.5292 38.3929 26.0355 38.4744 26.5537C38.485 26.6213 38.5079 26.6863 38.5418 26.7454C38.6999 27.0212 38.989 27.2459 39.3417 27.42C39.7065 27.6001 40.1903 27.7517 40.8077 27.8507C42.0424 28.0485 43.8602 28.0436 46.446 27.5862C49.6367 27.0219 52.0282 26.4972 53.7296 25.9195C55.3995 25.3526 56.5436 24.692 57.0493 23.7548C57.1034 23.6545 57.1249 23.5388 57.1108 23.4243C57.0809 23.1828 56.9716 22.7402 56.847 22.2458L56.772 21.9497L56.7717 21.9486L56.7714 21.9474C56.6578 21.4988 56.5294 20.9923 56.407 20.4701C56.2564 19.8282 56.1174 19.174 56.028 18.5916C55.9367 17.9958 55.9056 17.5248 55.9438 17.2268C55.9568 17.1251 56.0129 16.9473 56.1389 16.6823C56.2603 16.4269 56.4287 16.127 56.6336 15.7906C56.9856 15.2129 57.4258 14.5593 57.8838 13.8794L58.1146 13.5364C58.6481 12.7426 59.1887 11.9258 59.5969 11.1996C59.8012 10.8362 59.9789 10.484 60.1072 10.16C60.2321 9.84471 60.3276 9.5138 60.3301 9.20459C60.3372 8.3468 60.2646 6.52401 59.338 4.84411ZM46.0707 2.33652C45.9415 2.23749 45.7754 2.15307 45.6126 2.08236C49.0494 0.194271 51.841 1.42069 52.871 2.30422C52.9194 2.37548 52.9675 2.44564 53.0151 2.51508C53.6204 3.39773 54.1475 4.16649 54.2861 5.65356C54.3141 5.95315 54.5727 6.17574 54.8638 6.15074C55.1549 6.12574 55.3683 5.86261 55.3404 5.56303C55.2171 4.24026 54.8141 3.35842 54.3623 2.62507C56.5748 3.04633 57.7607 4.18013 58.4183 5.37216C59.2028 6.79456 59.2777 8.37918 59.2711 9.1819C59.2702 9.28782 59.2323 9.46934 59.1256 9.7389C59.0223 9.99972 58.8702 10.3048 58.6783 10.6462C58.2941 11.3297 57.7767 12.1129 57.2408 12.9102L57.0131 13.2486C56.5563 13.9267 56.1 14.604 55.7341 15.2046C55.5201 15.5557 55.3304 15.8913 55.1862 16.1947C55.0465 16.4885 54.9295 16.7927 54.8938 17.0714C54.8699 17.2572 54.8643 17.4656 54.8722 17.6882C54.7931 17.6726 54.7124 17.658 54.6301 17.6444C54.6855 16.9705 54.8771 16.1465 55.1067 15.3603C55.3667 14.4697 55.6727 13.637 55.8746 13.1435C55.8971 13.0883 55.8717 13.0242 55.8177 13.0003C55.7638 12.9764 55.7017 13.0018 55.6792 13.057C55.4747 13.5568 55.1661 14.3967 54.9037 15.2954C54.6747 16.0798 54.4786 16.9162 54.42 17.6121C53.4862 17.4799 52.3707 17.4628 51.1702 17.5317C50.6358 17.5623 50.0823 17.6101 49.5175 17.6731C49.9885 15.8714 51.1869 13.5821 51.7506 12.627C51.7808 12.5759 51.7646 12.5088 51.7145 12.4771C51.6644 12.4455 51.5993 12.4613 51.5691 12.5124C50.9949 13.4853 49.7547 15.8525 49.2912 17.6991C49.2147 17.7081 49.138 17.7174 49.0611 17.7269C49.2505 16.4558 49.7464 14.9308 50.3028 13.5166C50.8897 12.025 51.5406 10.6646 51.9602 9.8689C51.9879 9.81631 51.9686 9.75005 51.9172 9.72089C51.8657 9.69174 51.8014 9.71073 51.7737 9.76331C51.3506 10.5655 50.6963 11.9332 50.1063 13.4328C49.5392 14.8743 49.0285 16.445 48.8425 17.7548C47.8714 17.8813 46.8769 18.0489 45.8975 18.2476C45.7903 18.2694 45.6832 18.2915 45.5764 18.314C45.1589 17.5842 44.712 16.423 44.3127 15.2252C43.8742 13.9098 43.4974 12.563 43.2846 11.7253C43.2698 11.6669 43.2119 11.6314 43.1553 11.6459C43.0987 11.6604 43.0649 11.7195 43.0797 11.7778C43.2936 12.62 43.6719 13.972 44.1124 15.2935C44.4999 16.4561 44.9387 17.605 45.359 18.3603C44.0638 18.6396 42.805 18.9713 41.6732 19.3322C41.4312 19.0565 41.1263 18.6444 40.7817 18.139C40.3365 17.4862 39.8306 16.686 39.317 15.8421C38.2897 14.1543 37.2338 12.2952 36.5754 11.0987C36.5464 11.0461 36.4817 11.027 36.4309 11.0562C36.3801 11.0853 36.3623 11.1515 36.3913 11.2041C37.0509 12.4027 38.1084 14.2647 39.1378 15.9559C39.6524 16.8015 40.1605 17.6053 40.6087 18.2625C40.9237 18.7244 41.2117 19.118 41.4533 19.4032C41.4107 19.4171 41.3684 19.4311 41.3263 19.4451C41.2733 19.3462 41.2037 19.2336 41.1245 19.1138C40.9818 18.8982 40.8 18.6478 40.6055 18.3915C40.2165 17.8788 39.7735 17.338 39.4842 16.9965C39.4455 16.9508 39.3786 16.9456 39.3347 16.9848C39.2908 17.0239 39.2865 17.0927 39.3252 17.1383C39.6127 17.4778 40.0531 18.0153 40.4391 18.5241C40.6322 18.7786 40.8108 19.0247 40.9498 19.2347C41.0196 19.3404 41.0776 19.4342 41.1221 19.5137C41.0505 19.538 40.9796 19.5625 40.9093 19.587C40.4277 19.7553 39.9734 19.9293 39.5557 20.1073C39.4521 19.9623 39.3182 19.8034 39.1665 19.6384C38.9386 19.3906 38.665 19.1235 38.3802 18.8606C37.8107 18.3348 37.1924 17.8224 36.7964 17.5109C36.7497 17.4741 36.6833 17.4829 36.6481 17.5304C36.6129 17.578 36.6222 17.6464 36.669 17.6832C37.0614 17.992 37.6753 18.5007 38.2398 19.0218C38.5221 19.2824 38.791 19.5451 39.0134 19.7869C39.1487 19.934 39.2648 20.0712 39.3559 20.1941C39.2616 20.2357 39.1693 20.2776 39.0793 20.3197C39.068 20.2998 39.0562 20.2799 39.0437 20.2601C38.9504 20.1117 38.8163 19.9526 38.654 19.7877C38.3293 19.4577 37.88 19.0931 37.3838 18.7299C36.3906 18.0028 35.1962 17.2716 34.3992 16.8201C34.3477 16.791 34.2835 16.8099 34.2557 16.8625C34.228 16.9151 34.2472 16.9813 34.2987 17.0105C35.0912 17.4594 36.278 18.1861 37.2623 18.9067C37.7548 19.2673 38.1934 19.6239 38.5061 19.9416C38.6625 20.1006 38.7846 20.247 38.8662 20.3767C38.8736 20.3884 38.8806 20.4 38.8872 20.4113C38.5416 20.5796 38.2321 20.7503 37.9661 20.9221C37.4402 20.0988 36.555 19.2309 35.1601 18.681L35.1514 18.6777C32 17.4993 30.5129 15.1938 30.1787 14.2773C29.1368 11.4196 29.9408 9.159 31.3291 7.60428C32.0304 6.81882 32.8823 6.21446 33.7219 5.81668C34.1369 5.62008 34.5405 5.47783 34.914 5.38762C34.9033 5.40784 34.8926 5.42817 34.882 5.44863C34.6569 5.8833 34.4368 6.43234 34.417 6.96401C34.4058 7.26425 34.6337 7.51996 34.9259 7.53516C35.2182 7.55035 35.4641 7.31928 35.4753 7.01904C35.4859 6.73372 35.6168 6.35834 35.8183 5.96937C36.0097 5.59975 36.2351 5.27385 36.3814 5.08975C39.4272 1.71642 42.8536 2.07829 44.1935 2.66705C44.3688 2.76615 44.6179 2.85798 44.818 2.93173L44.9133 2.967C45.1927 3.07149 45.3692 3.14878 45.4442 3.20631C45.6801 3.38711 46.0115 3.33896 46.1844 3.09877C46.3574 2.85859 46.3065 2.51732 46.0707 2.33652ZM38.2337 21.3956C38.2744 21.4778 38.3115 21.5588 38.3452 21.6381C39.0892 21.1937 40.1305 20.7597 41.3308 20.362C42.797 19.8761 44.5236 19.437 46.2856 19.0971C48.0477 18.7572 49.8501 18.5155 51.468 18.4264C52.7804 18.3541 53.985 18.3812 54.9521 18.5438C54.9385 18.4454 54.9262 18.3476 54.9154 18.2511C53.9491 18.0397 52.6616 17.9917 51.2062 18.0751C49.5832 18.1682 47.7728 18.4233 46.0062 18.7817C44.2396 19.1401 42.5222 19.6006 41.0852 20.1026C39.8799 20.5238 38.8903 20.9679 38.2337 21.3956ZM55.3776 20.7129C55.2535 20.1841 55.1338 19.6334 55.0419 19.1113C54.1106 18.9323 52.8858 18.8937 51.5028 18.9699C49.9127 19.0575 48.1338 19.2956 46.3895 19.6321C44.6453 19.9686 42.9406 20.4025 41.4989 20.8803C40.2531 21.2931 39.2206 21.7332 38.5282 22.1625C38.5621 22.2877 38.5862 22.4044 38.6016 22.5104C38.815 23.2346 38.9919 23.9177 39.1326 24.5115C39.8586 24.0738 40.8835 23.6496 42.0662 23.2629C43.5432 22.78 45.2939 22.347 47.078 22.0173C48.862 21.6876 50.6848 21.4602 52.3061 21.3906C53.5364 21.3378 54.665 21.375 55.5766 21.5337C55.5108 21.2695 55.4433 20.9932 55.3776 20.7129ZM42.2324 23.7818C40.9653 24.1961 39.9292 24.6396 39.2608 25.0715C39.3009 25.2532 39.3368 25.4225 39.3685 25.5774C40.07 25.0435 41.0675 24.5583 42.2179 24.1333C43.6776 23.5941 45.4181 23.1395 47.1952 22.8061C48.9726 22.4726 50.7928 22.2591 52.4132 22.2042C53.6942 22.1608 54.8647 22.216 55.794 22.3963L55.7225 22.1138C54.8392 21.9298 53.6677 21.8772 52.3347 21.9345C50.7424 22.0028 48.9439 22.2267 47.1779 22.553C45.412 22.8794 43.6839 23.3072 42.2324 23.7818ZM39.4841 26.1802L39.4962 26.2495C39.5046 26.2573 39.5144 26.266 39.526 26.2756L39.5433 26.2895C40.495 26.5553 42.3636 26.8065 45.4937 26.3766C48.0115 26.0308 50.5831 25.4676 52.5818 24.816C53.5821 24.49 54.4302 24.1446 55.0542 23.7977C55.3662 23.6242 55.6153 23.4541 55.7977 23.2909C55.8671 23.2289 55.9245 23.1698 55.9713 23.1141C55.9615 23.0723 55.951 23.0281 55.9397 22.9815C55.0428 22.7741 53.8262 22.7012 52.4372 22.7482C50.8465 22.8021 49.0523 23.0121 47.2965 23.3416C45.5403 23.6711 43.8288 24.1189 42.4024 24.6458C41.1301 25.1159 40.1113 25.6395 39.4841 26.1802Z" fill="#470D21"/>
</svg>
