<svg width="192" height="60" viewBox="0 0 192 60" fill="none" xmlns="http://www.w3.org/2000/svg">
<path d="M75.8851 30.9407C74.5928 28.5199 69.5787 32.3964 67.2331 34.6372C63.0441 36.9371 56.4018 41.276 63.3452 40.2331C72.0246 38.9294 77.5552 38.7524 78.3219 36.6761C79.0885 34.5997 77.5005 33.9666 75.8851 30.9407Z" fill="#D67D3E"/>
<path fill-rule="evenodd" clip-rule="evenodd" d="M32.8822 58.1683C35.0982 59.3894 37.5829 60 40.3362 60C43.0895 60 45.5742 59.3894 47.7903 58.1683C50.0399 56.9471 51.8027 55.2026 53.0786 52.9348C54.3881 50.632 55.0429 47.9804 55.0429 44.9798C55.0429 41.9793 54.4049 39.3451 53.129 37.0772C51.8531 34.7745 50.1071 33.0125 47.891 31.7914C45.6749 30.5702 43.1903 29.9597 40.437 29.9597C37.6837 29.9597 35.199 30.5702 32.9829 31.7914C30.7668 33.0125 29.0208 34.7745 27.7449 37.0772C26.469 39.3451 25.831 41.9793 25.831 44.9798C25.831 48.0153 26.4522 50.6669 27.6946 52.9348C28.9705 55.2026 30.6997 56.9471 32.8822 58.1683ZM44.5165 50.3703C43.3749 51.6264 41.9815 52.2544 40.3362 52.2544C38.691 52.2544 37.3143 51.6264 36.2063 50.3703C35.1318 49.1143 34.5946 47.3175 34.5946 44.9798C34.5946 42.6073 35.1486 40.8105 36.2566 39.5893C37.3647 38.3333 38.7581 37.7053 40.437 37.7053C42.0822 37.7053 43.4589 38.3333 44.5669 39.5893C45.7085 40.8454 46.2793 42.6422 46.2793 44.9798C46.2793 47.3175 45.6917 49.1143 44.5165 50.3703Z" fill="#F9E4D4"/>
<path fill-rule="evenodd" clip-rule="evenodd" d="M64.9506 58.1683C67.1667 59.3894 69.6514 60 72.4047 60C75.158 60 77.6427 59.3894 79.8587 58.1683C82.1084 56.9471 83.8712 55.2026 85.1471 52.9348C86.4566 50.632 87.1113 47.9804 87.1113 44.9798C87.1113 41.9793 86.4734 39.3451 85.1974 37.0772C83.9215 34.7745 82.1755 33.0125 79.9595 31.7914C77.7434 30.5702 75.2587 29.9597 72.5054 29.9597C69.7521 29.9597 67.2674 30.5702 65.0514 31.7914C62.8353 33.0125 61.0893 34.7745 59.8134 37.0772C58.5375 39.3451 57.8995 41.9793 57.8995 44.9798C57.8995 48.0153 58.5207 50.6669 59.763 52.9348C61.0389 55.2026 62.7682 56.9471 64.9506 58.1683ZM76.585 50.3703C75.4434 51.6264 74.0499 52.2544 72.4047 52.2544C70.7594 52.2544 69.3828 51.6264 68.2747 50.3703C67.2003 49.1143 66.6631 47.3175 66.6631 44.9798C66.6631 42.6073 67.2171 40.8105 68.3251 39.5893C69.4331 38.3333 70.8266 37.7053 72.5054 37.7053C74.1507 37.7053 75.5273 38.3333 76.6354 39.5893C77.777 40.8454 78.3478 42.6422 78.3478 44.9798C78.3478 47.3175 77.7602 49.1143 76.585 50.3703Z" fill="#F9E4D4"/>
<path fill-rule="evenodd" clip-rule="evenodd" d="M91.5797 37.0249C90.5052 39.2928 89.968 41.927 89.968 44.9275C89.968 47.928 90.5052 50.5797 91.5797 52.8824C92.6877 55.1503 94.1819 56.9122 96.0622 58.1683C97.9425 59.3894 100.041 60 102.358 60C104.339 60 106.068 59.5813 107.545 58.744C109.056 57.9066 110.215 56.7901 111.021 55.3945V59.5813H119.633V20.8534H111.021V34.4081C110.148 33.0474 108.939 31.9658 107.394 31.1634C105.883 30.3609 104.205 29.9597 102.358 29.9597C100.041 29.9597 97.9425 30.5702 96.0622 31.7914C94.1819 33.0125 92.6877 34.757 91.5797 37.0249ZM109.207 39.694C110.416 40.9849 111.021 42.7469 111.021 44.9798C111.021 47.2128 110.416 48.9747 109.207 50.2657C108.032 51.5566 106.588 52.2021 104.876 52.2021C103.164 52.2021 101.703 51.5566 100.494 50.2657C99.3191 48.9399 98.7315 47.1605 98.7315 44.9275C98.7315 42.6945 99.3191 40.95 100.494 39.694C101.703 38.4031 103.164 37.7576 104.876 37.7576C106.588 37.7576 108.032 38.4031 109.207 39.694Z" fill="#F9E4D4"/>
<path d="M126.468 25.9822C127.442 26.8893 128.684 27.3429 130.195 27.3429C131.673 27.3429 132.881 26.8893 133.822 25.9822C134.795 25.0402 135.282 23.8888 135.282 22.5281C135.282 21.1325 134.795 19.9811 133.822 19.074C132.881 18.1319 131.673 17.6609 130.195 17.6609C128.684 17.6609 127.442 18.1319 126.468 19.074C125.528 19.9811 125.058 21.1325 125.058 22.5281C125.058 23.8888 125.528 25.0402 126.468 25.9822Z" fill="#F9E4D4"/>
<path fill-rule="evenodd" clip-rule="evenodd" d="M167.059 47.1256C167.159 46.2184 167.21 45.3462 167.21 44.5088C167.21 41.5781 166.605 39.0136 165.397 36.8156C164.221 34.6175 162.576 32.9253 160.461 31.7391C158.345 30.5528 155.928 29.9597 153.208 29.9597C150.421 29.9597 147.953 30.5702 145.804 31.7914C143.656 33.0125 141.977 34.757 140.768 37.0249C139.593 39.2928 139.005 41.9444 139.005 44.9798C139.005 48.0153 139.61 50.6669 140.818 52.9348C142.027 55.2026 143.706 56.9471 145.855 58.1683C148.004 59.3894 150.455 60 153.208 60C155.491 60 157.556 59.5639 159.403 58.6916C161.25 57.8194 162.778 56.6157 163.986 55.0805C165.229 53.5453 166.085 51.8183 166.555 49.8993H157.388C156.549 51.7834 155.055 52.7254 152.906 52.7254C151.462 52.7254 150.237 52.2544 149.229 51.3124C148.256 50.3355 147.702 48.9399 147.567 47.1256H167.059ZM156.885 38.4903C157.892 39.3974 158.396 40.6186 158.396 42.1537H147.618C147.853 40.5488 148.457 39.3102 149.431 38.4379C150.438 37.5657 151.664 37.1296 153.107 37.1296C154.618 37.1296 155.878 37.5831 156.885 38.4903Z" fill="#F9E4D4"/>
<path d="M181.877 37.7576L170.192 52.4637V59.5813H192V52.2021H179.812L191.748 37.4959V30.3783H170.293V37.7576H181.877Z" fill="#F9E4D4"/>
<path d="M23.0169 30.012V22.8421H0V59.5813H8.61245V44.7182H19.3906V37.7576H8.61245V30.012H23.0169Z" fill="#F9E4D4"/>
<path d="M134.476 59.5813V30.3783H125.864V59.5813H134.476Z" fill="#F9E4D4"/>
<path d="M56.8434 31.7783L61.0405 30.1428L68.5953 27.6896L75.3106 26.8719L82.026 26.8719L83.1691 33.7756L77.2287 33.5252L72.1736 34.2709L64.6094 35.8696L58.3251 38.5951L56.8434 31.7783Z" fill="#D67D3E"/>
<path d="M69.3535 9.55919C69.4397 9.57307 69.4996 9.65657 69.4872 9.74568C69.2431 11.5087 68.9408 14.4809 68.828 17.6615C68.7152 20.8447 68.7928 24.2246 69.3039 26.8086C69.3214 26.8972 69.2665 26.9828 69.1812 26.9999C69.096 27.0169 69.0126 26.9589 68.9951 26.8704C68.4763 24.2472 68.3999 20.8359 68.513 17.6455C68.6261 14.4527 68.9296 11.469 69.1751 9.6954C69.1875 9.60629 69.2673 9.5453 69.3535 9.55919Z" fill="#F9E4D4"/>
<path d="M51.7693 12.0477C51.8555 12.0364 51.9351 12.0998 51.9471 12.1893C52.2817 14.6975 53.9662 20.7154 58.0073 24.6895C58.0708 24.752 58.0741 24.8554 58.0145 24.9204C57.955 24.9855 57.8553 24.9875 57.7917 24.9251C53.6783 20.8797 51.9748 14.7789 51.6348 12.2301C51.6229 12.1406 51.6831 12.059 51.7693 12.0477Z" fill="#F9E4D4"/>
<path d="M65.75 12.3903C65.8365 12.3815 65.9144 12.4472 65.9239 12.537C66.0991 14.1855 66.4338 16.8149 66.8686 19.3427C67.3048 21.8784 67.8378 24.2873 68.4037 25.5116C68.4415 25.5933 68.4086 25.6905 68.3301 25.7286C68.2517 25.7667 68.1575 25.7314 68.1197 25.6497C67.532 24.3783 66.9932 21.9248 66.5583 19.3962C66.122 16.8597 65.7863 14.223 65.6106 12.5687C65.601 12.4789 65.6635 12.3991 65.75 12.3903Z" fill="#F9E4D4"/>
<path d="M82.0991 16.5903C82.1691 16.6448 82.184 16.7472 82.1322 16.8191C81.4505 17.7662 80.4012 19.3433 79.4716 20.9929C78.5385 22.6487 77.739 24.3552 77.5384 25.5679C77.5238 25.6566 77.4423 25.7153 77.3565 25.699C77.2707 25.6827 77.213 25.5976 77.2277 25.5089C77.4388 24.2324 78.266 22.481 79.1988 20.8257C80.1352 19.1641 81.1912 17.5769 81.8787 16.6218C81.9304 16.5499 82.0291 16.5358 82.0991 16.5903Z" fill="#F9E4D4"/>
<path fill-rule="evenodd" clip-rule="evenodd" d="M88.317 7.26616C86.9284 4.7291 84.312 2.52055 79.5805 2.11317C77.4007 0.316115 72.1239 -1.67975 66.0228 2.3546C63.3661 1.3615 57.9631 1.15865 53.2111 6.27091C52.0829 6.28739 50.7859 6.63434 49.5164 7.24047C48.0951 7.91906 46.6555 8.94712 45.462 10.2941C43.0535 13.0124 41.6555 17.0341 43.442 21.9724C44.0951 23.7776 46.6419 27.6057 51.7891 29.5478C54.8505 30.7668 55.7922 33.1487 55.8997 34.0251C55.9053 34.0711 55.9147 34.1165 55.9277 34.1609C56.701 36.7938 57.1429 39.0533 57.2642 39.8306C57.28 39.9319 57.314 40.0295 57.3645 40.1182C57.5999 40.5318 58.0301 40.8688 58.555 41.13C59.098 41.4002 59.8181 41.6276 60.7371 41.776C62.5748 42.0728 65.2803 42.0654 69.1289 41.3794C73.8779 40.5329 77.4373 39.7458 79.9696 38.8793C82.455 38.0289 84.158 37.0381 84.9106 35.6322C84.9911 35.4818 85.0231 35.3082 85.0021 35.1364C84.9576 34.7742 84.795 34.1102 84.6094 33.3687L84.4979 32.9246L84.4975 32.9228L84.497 32.9211C84.3278 32.2482 84.1368 31.4885 83.9545 30.7052C83.7304 29.7423 83.5235 28.7611 83.3906 27.8873C83.2546 26.9938 83.2083 26.2871 83.2652 25.8401C83.2846 25.6876 83.3681 25.4209 83.5555 25.0235C83.7362 24.6404 83.9868 24.1905 84.2918 23.686C84.8158 22.8193 85.471 21.839 86.1526 20.8191L86.4962 20.3046C87.2902 19.1139 88.0949 17.8887 88.7024 16.7994C89.0065 16.2543 89.2709 15.726 89.4619 15.24C89.6477 14.7671 89.7899 14.2707 89.7937 13.8069C89.8042 12.5202 89.6961 9.78602 88.317 7.26616ZM68.5703 3.50479C68.378 3.35624 68.1308 3.22961 67.8884 3.12354C73.0037 0.291407 77.1587 2.13104 78.6917 3.45633C78.7637 3.56322 78.8354 3.66846 78.9062 3.77262C79.8071 5.0966 80.5917 6.24973 80.798 8.48034C80.8395 8.92972 81.2245 9.26361 81.6578 9.22611C82.091 9.18861 82.4086 8.79391 82.3671 8.34454C82.1836 6.36039 81.5837 5.03763 80.9113 3.9376C84.2043 4.5695 85.9695 6.27019 86.9481 8.05824C88.1158 10.1918 88.2273 12.5688 88.2174 13.7729C88.2161 13.9317 88.1597 14.204 88.0009 14.6084C87.8471 14.9996 87.6207 15.4573 87.3351 15.9694C86.7633 16.9946 85.9932 18.1693 85.1957 19.3653L84.8567 19.8729C84.1768 20.8901 83.4977 21.906 82.953 22.8069C82.6346 23.3336 82.3522 23.837 82.1376 24.292C81.9297 24.7328 81.7555 25.1891 81.7023 25.607C81.6669 25.8858 81.6585 26.1985 81.6703 26.5322C81.5526 26.5089 81.4324 26.487 81.3099 26.4665C81.3923 25.4558 81.6775 24.2197 82.0192 23.0405C82.4063 21.7045 82.8616 20.4555 83.1621 19.7152C83.1957 19.6324 83.1579 19.5363 83.0776 19.5005C82.9973 19.4646 82.9049 19.5027 82.8713 19.5854C82.5669 20.3353 82.1077 21.5951 81.7172 22.9431C81.3763 24.1197 81.0844 25.3742 80.9972 26.4182C79.6074 26.2199 77.9471 26.1942 76.1603 26.2975C75.3649 26.3435 74.5411 26.4152 73.7005 26.5096C74.4015 23.8071 76.1851 20.3732 77.0241 18.9405C77.069 18.8638 77.045 18.7632 76.9704 18.7157C76.8958 18.6683 76.799 18.6919 76.7541 18.7686C75.8994 20.228 74.0535 23.7788 73.3636 26.5486C73.2497 26.5621 73.1356 26.5761 73.0212 26.5904C73.303 24.6837 74.0412 22.3962 74.8693 20.2749C75.7428 18.0375 76.7115 15.9968 77.3361 14.8033C77.3774 14.7245 77.3487 14.6251 77.272 14.5813C77.1954 14.5376 77.0998 14.5661 77.0585 14.645C76.4288 15.8483 75.455 17.8999 74.5768 20.1493C73.7328 22.3114 72.9727 24.6674 72.6958 26.6321C71.2505 26.8219 69.7703 27.0734 68.3125 27.3714C68.1529 27.4041 67.9936 27.4373 67.8346 27.471C67.2133 26.3764 66.548 24.6345 65.9538 22.8378C65.3012 20.8647 64.7403 18.8445 64.4236 17.5879C64.4015 17.5004 64.3154 17.4471 64.2311 17.4689C64.1469 17.4906 64.0965 17.5792 64.1186 17.6668C64.437 18.9299 65.0001 20.958 65.6557 22.9403C66.2325 24.6842 66.8855 26.4075 67.5111 27.5405C65.5833 27.9595 63.7097 28.457 62.0253 28.9983C61.665 28.5847 61.2112 27.9666 60.6983 27.2085C60.0358 26.2294 59.2828 25.0291 58.5182 23.7631C56.9894 21.2314 55.4178 18.4429 54.4377 16.6481C54.3946 16.5691 54.2984 16.5406 54.2227 16.5842C54.1471 16.6279 54.1207 16.7273 54.1638 16.8062C55.1455 18.604 56.7195 21.397 58.2516 23.9339C59.0175 25.2022 59.7738 26.4079 60.4409 27.3938C60.9096 28.0866 61.3384 28.677 61.6979 29.1048C61.6346 29.1257 61.5716 29.1466 61.5088 29.1676C61.43 29.0193 61.3264 28.8504 61.2085 28.6708C60.9962 28.3473 60.7256 27.9717 60.4362 27.5873C59.8571 26.8182 59.1978 26.0071 58.7671 25.4947C58.7096 25.4263 58.61 25.4184 58.5446 25.4772C58.4793 25.5359 58.4729 25.639 58.5305 25.7074C58.9585 26.2166 59.6139 27.023 60.1885 27.7862C60.4758 28.1679 60.7417 28.5371 60.9485 28.8521C61.0525 29.0106 61.1387 29.1513 61.2049 29.2705C61.0984 29.307 60.9928 29.3437 60.8882 29.3806C60.1715 29.6329 59.4953 29.894 58.8736 30.161C58.7194 29.9434 58.5202 29.7051 58.2943 29.4575C57.9551 29.0859 57.5479 28.6852 57.1241 28.2909C56.2764 27.5022 55.3561 26.7336 54.7667 26.2663C54.6972 26.2112 54.5984 26.2243 54.546 26.2957C54.4936 26.367 54.5075 26.4696 54.5771 26.5247C55.1612 26.988 56.0748 27.751 56.915 28.5327C57.3352 28.9235 57.7354 29.3177 58.0664 29.6804C58.2678 29.9009 58.4406 30.1069 58.5762 30.2911C58.4358 30.3536 58.2985 30.4164 58.1645 30.4795C58.1478 30.4497 58.1301 30.4199 58.1115 30.3902C57.9726 30.1675 57.7731 29.9289 57.5316 29.6816C57.0482 29.1866 56.3795 28.6397 55.6409 28.0948C54.1627 27.0042 52.385 25.9074 51.1988 25.2302C51.1221 25.1864 51.0265 25.2149 50.9853 25.2938C50.944 25.3726 50.9726 25.472 51.0493 25.5158C52.2288 26.1891 53.9952 27.2792 55.4602 28.36C56.1932 28.9009 56.8459 29.4359 57.3114 29.9124C57.5443 30.1509 57.726 30.3704 57.8474 30.565C57.8584 30.5827 57.8688 30.6 57.8786 30.6169C57.3643 30.8693 56.9036 31.1255 56.5077 31.3831C55.7249 30.1482 54.4074 28.8463 52.3313 28.0215L52.3184 28.0165C47.6278 26.249 45.4146 22.7907 44.9172 21.4159C43.3665 17.1295 44.563 13.7385 46.6293 11.4064C47.6732 10.2282 48.941 9.32168 50.1907 8.72502C50.8084 8.43012 51.4092 8.21674 51.9651 8.08144C51.9491 8.11175 51.9332 8.14226 51.9174 8.17294C51.5824 8.82494 51.2547 9.64851 51.2253 10.446C51.2087 10.8964 51.5478 11.2799 51.9828 11.3027C52.4177 11.3255 52.7838 10.9789 52.8004 10.5286C52.8162 10.1006 53.0111 9.53751 53.3109 8.95406C53.5958 8.39962 53.9314 7.91077 54.1491 7.63463C58.6824 2.57463 63.7821 3.11744 65.7764 4.00057C66.0372 4.14922 66.4081 4.28698 66.7058 4.39759L66.8476 4.45051C67.2635 4.60724 67.5263 4.72317 67.6379 4.80947C67.9889 5.08066 68.4822 5.00844 68.7396 4.64816C68.9971 4.28788 68.9213 3.77598 68.5703 3.50479ZM56.906 32.0934C56.9665 32.2167 57.0217 32.3381 57.0718 32.4571C58.1792 31.7906 59.7291 31.1396 61.5156 30.543C63.6979 29.8142 66.2676 29.1555 68.8903 28.6456C71.5128 28.1357 74.1954 27.7733 76.6035 27.6396C78.5568 27.5311 80.3497 27.5718 81.7892 27.8157C81.769 27.6681 81.7506 27.5215 81.7346 27.3766C80.2963 27.0595 78.3801 26.9875 76.2139 27.1127C73.7983 27.2523 71.1036 27.635 68.4743 28.1726C65.845 28.7101 63.2888 29.4009 61.1501 30.154C59.3561 30.7857 57.8832 31.4518 56.906 32.0934ZM82.4224 31.0694C82.2378 30.2762 82.0597 29.45 81.9229 28.667C80.5367 28.3984 78.7138 28.3406 76.6554 28.4549C74.2887 28.5863 71.641 28.9434 69.0449 29.4482C66.4488 29.9529 63.9116 30.6038 61.7658 31.3204C59.9116 31.9396 58.3748 32.5997 57.3443 33.2438C57.3947 33.4316 57.4307 33.6067 57.4536 33.7655C57.7712 34.8518 58.0344 35.8765 58.2439 36.7672C59.3245 36.1106 60.8498 35.4744 62.6102 34.8944C64.8085 34.17 67.4142 33.5205 70.0696 33.0259C72.7249 32.5314 75.4379 32.1904 77.8509 32.0859C79.6821 32.0066 81.3618 32.0624 82.7186 32.3006C82.6207 31.9042 82.5203 31.4898 82.4224 31.0694ZM62.8575 35.6727C60.9716 36.2941 59.4294 36.9594 58.4347 37.6072C58.4944 37.8798 58.5478 38.1338 58.5949 38.3661C59.6391 37.5653 61.1236 36.8375 62.8359 36.2C65.0085 35.3911 67.599 34.7093 70.244 34.2091C72.8894 33.7089 75.5986 33.3886 78.0103 33.3063C79.917 33.2413 81.659 33.324 83.0423 33.5945L82.9358 33.1707C81.6211 32.8947 79.8776 32.8158 77.8935 32.9017C75.5236 33.0043 72.8468 33.34 70.2183 33.8296C67.59 34.3191 65.018 34.9609 62.8575 35.6727ZM58.767 39.2702L58.785 39.3742C58.7975 39.386 58.8122 39.3991 58.8293 39.4133L58.8552 39.4343C60.2717 39.8329 63.0528 40.2097 67.7115 39.5649C71.459 39.0463 75.2864 38.2014 78.2613 37.2241C79.7501 36.735 81.0124 36.2169 81.9411 35.6966C82.4055 35.4363 82.7762 35.1812 83.0477 34.9364C83.151 34.8433 83.2365 34.7547 83.3062 34.6711C83.2916 34.6084 83.2758 34.5421 83.2591 34.4723C81.9242 34.1611 80.1135 34.0518 78.046 34.1224C75.6786 34.2031 73.0081 34.5182 70.3947 35.0124C67.7809 35.5067 65.2335 36.1784 63.1106 36.9688C61.2169 37.6738 59.7005 38.4592 58.767 39.2702Z" fill="#F9E4D4"/>
</svg>
